# xmcd
#
# Track frame offsets:
#	150
#	21187
#	36007
#	48925
#	69295
#	82620
#	102655
#	117170
#	133082
#	149682
#	163180
#
# Disc length: 3263 seconds
#
# Revision: 1
# Processed by: cddbd v1.5.2PL0 Copyright (c) Steve Scherf et al.
# Submitted via: EasyCDDAExtractor 8.0.2.1
#
DISCID=920cbd0b
DTITLE=Ovelha Negra - Por Este Andar Ainda Acabo A Morrer Em Lisboa
DYEAR=1998
DGENRE=Fado
TTITLE0=Na Noite Do Sétimo Dia 
TTITLE1=Eu Menti À Saudade
TTITLE2=Beco Dos Ramos
TTITLE3=Fui Andar Pela Noite
TTITLE4=Quem Me Dera Ser Feliz
TTITLE5=Tu És Minha
TTITLE6=Todos Os Teus Filhos Querem Morrer Por Amor
TTITLE7=Eu VI O Mar
TTITLE8=Vida Perdida
TTITLE9=27 De Março
TTITLE10=Não Há Pior Inferno Que O Amor
EXTD=
EXTT0=
EXTT1=
EXTT2=
EXTT3=
EXTT4=
EXTT5=
EXTT6=
EXTT7=
EXTT8=
EXTT9=
EXTT10=
PLAYORDER=
